<svg width="181" height="64" viewBox="0 0 181 64" fill="none" xmlns="http://www.w3.org/2000/svg">
<g clip-path="url(#clip0_6804_62446)">
<g opacity="0.3">
<mask id="mask0_6804_62446" style="mask-type:alpha" maskUnits="userSpaceOnUse" x="0" y="-27" width="180" height="119">
<path fill-rule="evenodd" clip-rule="evenodd" d="M125.147 2.75049C118.284 9.55622 118.284 20.5905 125.147 27.3962C132.01 34.2019 143.137 34.2019 150 27.3962L150.001 27.3952L150.002 27.3962C156.865 34.2019 167.992 34.2019 174.855 27.3962C181.718 20.5905 181.718 9.55622 174.855 2.75049L174.854 2.74945C181.716 -4.05635 181.715 -15.0898 174.853 -21.8952C167.99 -28.7006 156.864 -28.7009 150.001 -21.8963C143.138 -28.7009 132.012 -28.7006 125.149 -21.8952C118.287 -15.0898 118.286 -4.05635 125.148 2.74945L125.147 2.75049Z" fill="white"/>
<path fill-rule="evenodd" clip-rule="evenodd" d="M65.1472 2.75049C58.2843 9.55622 58.2843 20.5905 65.1472 27.3962C72.0101 34.2019 83.1371 34.2019 90 27.3962L90.0011 27.3952L90.0021 27.3962C96.865 34.2019 107.992 34.2019 114.855 27.3962C121.718 20.5905 121.718 9.55622 114.855 2.75049L114.854 2.74945C121.716 -4.05635 121.715 -15.0898 114.853 -21.8952C107.99 -28.7006 96.8641 -28.7009 90.0011 -21.8963C83.1381 -28.7009 72.0118 -28.7006 65.1493 -21.8952C58.2867 -15.0898 58.2864 -4.05635 65.1482 2.74945L65.1472 2.75049Z" fill="white"/>
<path fill-rule="evenodd" clip-rule="evenodd" d="M5.14718 2.75049C-1.71573 9.55622 -1.71573 20.5905 5.14719 27.3962C12.0101 34.2019 23.1371 34.2019 30 27.3962L30.0011 27.3952L30.0021 27.3962C36.865 34.2019 47.992 34.2019 54.8549 27.3962C61.7178 20.5905 61.7178 9.55622 54.8549 2.75049L54.8539 2.74945C61.7157 -4.05635 61.7154 -15.0898 54.8528 -21.8952C47.9903 -28.7006 36.8641 -28.7009 30.0011 -21.8963C23.1381 -28.7009 12.0118 -28.7006 5.14928 -21.8952C-1.71329 -15.0898 -1.71364 -4.05635 5.14823 2.74945L5.14718 2.75049Z" fill="white"/>
<path fill-rule="evenodd" clip-rule="evenodd" d="M125.147 62.2495C118.284 69.0552 118.284 80.0895 125.147 86.8952C132.01 93.701 143.137 93.701 150 86.8952L150.001 86.8942L150.002 86.8952C156.865 93.701 167.992 93.701 174.855 86.8952C181.718 80.0895 181.718 69.0552 174.855 62.2495L174.854 62.2485C181.716 55.4427 181.715 44.4092 174.853 37.6038C167.99 30.7984 156.864 30.7981 150.001 37.6028C143.138 30.7981 132.012 30.7984 125.149 37.6038C118.287 44.4092 118.286 55.4427 125.148 62.2485L125.147 62.2495Z" fill="white"/>
<path fill-rule="evenodd" clip-rule="evenodd" d="M65.1472 62.2495C58.2843 69.0552 58.2843 80.0895 65.1472 86.8952C72.0101 93.701 83.1371 93.701 90 86.8952L90.0011 86.8942L90.0021 86.8952C96.865 93.701 107.992 93.701 114.855 86.8952C121.718 80.0895 121.718 69.0552 114.855 62.2495L114.854 62.2485C121.716 55.4427 121.715 44.4092 114.853 37.6038C107.99 30.7984 96.8641 30.7981 90.0011 37.6028C83.1381 30.7981 72.0118 30.7984 65.1493 37.6038C58.2867 44.4092 58.2864 55.4427 65.1482 62.2485L65.1472 62.2495Z" fill="white"/>
<path fill-rule="evenodd" clip-rule="evenodd" d="M5.14718 62.2495C-1.71573 69.0552 -1.71573 80.0895 5.14719 86.8952C12.0101 93.701 23.1371 93.701 30 86.8952L30.0011 86.8942L30.0021 86.8952C36.865 93.701 47.992 93.701 54.8549 86.8952C61.7178 80.0895 61.7178 69.0552 54.8549 62.2495L54.8539 62.2485C61.7157 55.4427 61.7154 44.4092 54.8528 37.6038C47.9903 30.7984 36.8641 30.7981 30.0011 37.6028C23.1381 30.7981 12.0118 30.7984 5.14928 37.6038C-1.71329 44.4092 -1.71364 55.4427 5.14823 62.2485L5.14718 62.2495Z" fill="white"/>
</mask>
<g mask="url(#mask0_6804_62446)">
<rect y="-27" width="180" height="119" fill="url(#paint0_linear_6804_62446)"/>
</g>
</g>
</g>
<defs>
<linearGradient id="paint0_linear_6804_62446" x1="90" y1="-27" x2="90" y2="92" gradientUnits="userSpaceOnUse">
<stop stop-color="white" stop-opacity="0"/>
<stop offset="1" stop-color="white"/>
</linearGradient>
<clipPath id="clip0_6804_62446">
<rect width="181" height="64" fill="white"/>
</clipPath>
</defs>
</svg>
