<?xml version="1.0" encoding="iso-8859-1"?>
<!-- Generator: Adobe Illustrator 16.0.0, SVG Export Plug-In . SVG Version: 6.00 Build 0)  -->
<!DOCTYPE svg PUBLIC "-//W3C//DTD SVG 1.1//EN" "http://www.w3.org/Graphics/SVG/1.1/DTD/svg11.dtd">
<svg version="1.1" id="Capa_1" xmlns="http://www.w3.org/2000/svg" xmlns:xlink="http://www.w3.org/1999/xlink" x="0px" y="0px"
	 width="32px" height="32px" viewBox="0 0 32 32" style="enable-background:new 0 0 32 32;" xml:space="preserve">
<path fill="#f8fafc" d="M16,0C7.163,0,0,7.164,0,16c0,8.837,7.163,16,16,16s16-7.163,16-16C32,7.164,24.837,0,16,0z M16,4
	c2.592,0,4.984,0.83,6.945,2.227L6.227,22.947C4.83,20.984,4,18.592,4,16C4,9.373,9.372,4,16,4z M16,28
	c-2.591,0-4.983-0.829-6.944-2.225l16.719-16.72C27.171,11.017,28,13.409,28,16C28,22.628,22.628,28,16,28z"/>
</svg>
