<svg width="15" height="15" viewBox="0 0 15 15" fill="none" xmlns="http://www.w3.org/2000/svg">
<path fill-rule="evenodd" clip-rule="evenodd" d="M9.16462 1.94821C8.27555 1.18328 6.96081 1.18328 6.07174 1.94821C5.68771 2.27863 5.20794 2.47735 4.70275 2.51527C3.53319 2.60304 2.60353 3.5327 2.51576 4.70226C2.47784 5.20745 2.27912 5.68722 1.9487 6.07125C1.18377 6.96032 1.18377 8.27506 1.9487 9.16413C2.27912 9.54816 2.47784 10.0279 2.51576 10.5331C2.60353 11.7027 3.53319 12.6323 4.70275 12.7201C5.20794 12.758 5.68771 12.9568 6.07174 13.2872C6.96081 14.0521 8.27555 14.0521 9.16462 13.2872C9.54865 12.9568 10.0284 12.758 10.5336 12.7201C11.7032 12.6323 12.6328 11.7027 12.7206 10.5331C12.7585 10.0279 12.9572 9.54816 13.2877 9.16413C14.0526 8.27506 14.0526 6.96032 13.2877 6.07125C12.9572 5.68722 12.7585 5.20745 12.7206 4.70226C12.6328 3.5327 11.7032 2.60304 10.5336 2.51527C10.0284 2.47735 9.54865 2.27863 9.16462 1.94821ZM10.731 6.3067C10.9734 6.03731 10.9516 5.62237 10.6822 5.37991C10.4128 5.13745 9.99786 5.15929 9.75541 5.42869L7.02801 8.45913L5.41332 7.11355C5.13488 6.88152 4.72108 6.91914 4.48905 7.19757C4.25702 7.47601 4.29464 7.88981 4.57307 8.12184L6.54366 9.764C6.88688 10.05 7.3948 10.0136 7.69368 9.68149L10.731 6.3067Z" fill="#10B981"/>
</svg>
