<svg width="16" height="16" viewBox="0 0 16 16" fill="none" xmlns="http://www.w3.org/2000/svg">
<path d="M3.55596 9.31157C3.40625 9.18016 3.28648 9.07475 3.1987 8.99739V8.95147L3.02296 8.77574C2.32915 8.08193 1.93203 7.16547 1.93203 6.2V6.07612C1.9935 4.2062 3.59056 2.66667 5.46536 2.66667C5.74364 2.66667 6.11285 2.76344 6.4809 2.96162C6.82823 3.14864 7.1331 3.40383 7.33555 3.68842C7.63003 4.31494 8.53783 4.30366 8.81023 3.65457C8.97797 3.36092 9.27196 3.0955 9.62427 2.89902C9.9919 2.694 10.3584 2.6 10.5987 2.6C12.528 2.6 14.0704 4.12742 14.132 6.07581V6.2C14.132 7.24201 13.7286 8.14473 13.0599 8.75771L12.8654 8.93606V8.97957C12.7643 9.06525 12.634 9.17766 12.4821 9.30974C12.1449 9.6029 11.6935 9.99999 11.202 10.4332C11.0443 10.5722 10.8824 10.7149 10.7188 10.8592C9.86259 11.6143 8.95806 12.4119 8.34469 12.9417C8.16816 13.0861 7.89589 13.0861 7.71937 12.9417C6.98716 12.3093 5.82455 11.2962 4.8352 10.4316C4.33957 9.9984 3.88783 9.60286 3.55596 9.31157Z" stroke="#64748B" stroke-width="1.2"/>
</svg>
