<svg width="32" height="32" viewBox="0 0 32 32" fill="none" xmlns="http://www.w3.org/2000/svg">
<circle cx="16" cy="16" r="16" fill="#334155"/>
<circle cx="16" cy="16" r="15.5" stroke="#F8FAFC" stroke-opacity="0.1"/>
<path d="M7.15153 19.1687C8.06459 24.0642 12.7734 27.2926 17.6689 26.3796C22.5644 25.4665 25.7929 20.7577 24.8798 15.8622C23.9667 10.9667 19.258 7.73823 14.3624 8.65128C9.4669 9.56434 6.23847 14.2731 7.15153 19.1687Z" fill="#64748B"/>
<circle cx="2.25425" cy="2.25425" r="2.25425" transform="matrix(-0.983048 0.183347 0.183347 0.983048 8.97266 15.9336)" fill="#64748B"/>
<ellipse cx="2.25425" cy="2.25425" rx="2.25425" ry="2.25425" transform="matrix(-0.983048 0.183347 0.183347 0.983048 26.7383 15.9336)" fill="#64748B"/>
<path fill-rule="evenodd" clip-rule="evenodd" d="M6.97999 15.2491C8.3263 16.1758 10.0269 16.5611 11.731 16.1785C13.4597 15.7903 14.8472 14.6893 15.6637 13.2458C16.9678 15.5439 19.6283 16.8286 22.2974 16.2292C23.2573 16.0137 24.112 15.5784 24.8221 14.9867C24.7955 14.8326 24.7649 14.6784 24.7302 14.5242C23.6193 9.57693 18.7798 6.4509 13.9208 7.54198C10.1338 8.39237 7.45266 11.5535 6.97999 15.2491Z" fill="#1E293B"/>
<path fill-rule="evenodd" clip-rule="evenodd" d="M22.4944 10.2055L9.35155 10.0811C9.66315 7.5394 12.5144 5.56859 15.966 5.60125C19.4176 5.63391 22.231 7.65833 22.4944 10.2055Z" fill="#475569"/>
<rect x="7.16016" y="10.0625" width="17.525" height="2.19062" rx="0.730207" transform="rotate(0.542194 7.16016 10.0625)" fill="#475569"/>
<path d="M13.7605 7.20615C13.772 5.99636 14.762 5.02491 15.9718 5.03635C17.1816 5.0478 18.153 6.03781 18.1416 7.24761L18.1139 10.1683L13.7329 10.1268L13.7605 7.20615Z" fill="#334155"/>
</svg>
