<svg width="18" height="18" viewBox="0 0 18 18" fill="none" xmlns="http://www.w3.org/2000/svg">
<path d="M7.83342 10.5003L6.04175 8.70866C5.88897 8.55588 5.69453 8.47949 5.45842 8.47949C5.2223 8.47949 5.02786 8.55588 4.87508 8.70866C4.7223 8.86144 4.64592 9.05588 4.64592 9.29199C4.64592 9.5281 4.7223 9.72255 4.87508 9.87533L7.25008 12.2503C7.41675 12.417 7.61119 12.5003 7.83342 12.5003C8.05564 12.5003 8.25008 12.417 8.41675 12.2503L13.1251 7.54199C13.2779 7.38921 13.3542 7.19477 13.3542 6.95866C13.3542 6.72255 13.2779 6.5281 13.1251 6.37533C12.9723 6.22255 12.7779 6.14616 12.5417 6.14616C12.3056 6.14616 12.1112 6.22255 11.9584 6.37533L7.83342 10.5003ZM9.00008 17.3337C7.8473 17.3337 6.76397 17.1149 5.75008 16.6774C4.73619 16.2399 3.85425 15.6462 3.10425 14.8962C2.35425 14.1462 1.7605 13.2642 1.323 12.2503C0.885498 11.2364 0.666748 10.1531 0.666748 9.00033C0.666748 7.84755 0.885498 6.76421 1.323 5.75033C1.7605 4.73644 2.35425 3.85449 3.10425 3.10449C3.85425 2.35449 4.73619 1.76074 5.75008 1.32324C6.76397 0.885742 7.8473 0.666992 9.00008 0.666992C10.1529 0.666992 11.2362 0.885742 12.2501 1.32324C13.264 1.76074 14.1459 2.35449 14.8959 3.10449C15.6459 3.85449 16.2397 4.73644 16.6772 5.75033C17.1147 6.76421 17.3334 7.84755 17.3334 9.00033C17.3334 10.1531 17.1147 11.2364 16.6772 12.2503C16.2397 13.2642 15.6459 14.1462 14.8959 14.8962C14.1459 15.6462 13.264 16.2399 12.2501 16.6774C11.2362 17.1149 10.1529 17.3337 9.00008 17.3337Z" fill="#4CBFA4"/>
</svg>
